<mxfile host="app.diagrams.net" modified="2024-04-26T20:10:46.887Z" agent="Mozilla/5.0 (Macintosh; Intel Mac OS X 10_15_7) AppleWebKit/537.36 (KHTML, like Gecko) Chrome/120.0.0.0 Safari/537.36" etag="15bXQGy0R9ysb_kxjKSF" version="24.3.1" type="github">
  <diagram name="Page-1" id="52a04d89-c75d-2922-d76d-85b35f80e030">
    <mxGraphModel dx="976" dy="606" grid="1" gridSize="10" guides="1" tooltips="1" connect="1" arrows="1" fold="1" page="1" pageScale="1" pageWidth="1100" pageHeight="850" background="none" math="0" shadow="0">
      <root>
        <mxCell id="0" />
        <mxCell id="1" parent="0" />
        <mxCell id="17472293e6e8944d-29" value="MAVEN" style="whiteSpace=wrap;html=1;rounded=0;shadow=0;comic=0;labelBackgroundColor=none;strokeWidth=1;fontFamily=Verdana;fontSize=12;align=center;" parent="1" vertex="1">
          <mxGeometry x="600" y="90" width="120" height="50" as="geometry" />
        </mxCell>
        <mxCell id="1fdf3b25b50cf41e-27" style="edgeStyle=none;html=1;labelBackgroundColor=none;startFill=0;startSize=8;endFill=1;endSize=8;fontFamily=Verdana;fontSize=12;" parent="1" source="17472293e6e8944d-30" edge="1">
          <mxGeometry relative="1" as="geometry">
            <mxPoint x="310" y="105" as="targetPoint" />
            <Array as="points" />
          </mxGeometry>
        </mxCell>
        <mxCell id="17472293e6e8944d-30" value="LOCAL MACHINE" style="whiteSpace=wrap;html=1;rounded=0;shadow=0;comic=0;labelBackgroundColor=none;strokeWidth=1;fontFamily=Verdana;fontSize=12;align=center;" parent="1" vertex="1">
          <mxGeometry x="20" y="80" width="120" height="50" as="geometry" />
        </mxCell>
        <mxCell id="1fdf3b25b50cf41e-28" style="edgeStyle=none;html=1;labelBackgroundColor=none;startFill=0;startSize=8;endFill=1;endSize=8;fontFamily=Verdana;fontSize=12;" parent="1" edge="1">
          <mxGeometry relative="1" as="geometry">
            <mxPoint x="450" y="109.46000000000001" as="sourcePoint" />
            <mxPoint x="600" y="110.53142857142856" as="targetPoint" />
          </mxGeometry>
        </mxCell>
        <mxCell id="1fdf3b25b50cf41e-26" value="USER&lt;div&gt;(BROWSER)&lt;/div&gt;" style="whiteSpace=wrap;html=1;rounded=0;shadow=0;comic=0;labelBackgroundColor=none;strokeWidth=1;fontFamily=Verdana;fontSize=12;align=center;" parent="1" vertex="1">
          <mxGeometry x="20" y="340" width="120" height="50" as="geometry" />
        </mxCell>
        <mxCell id="1fdf3b25b50cf41e-36" style="edgeStyle=none;html=1;labelBackgroundColor=none;startFill=0;startSize=8;endFill=1;endSize=8;fontFamily=Verdana;fontSize=12;" parent="1" target="aW_DweHNi2bZDPe8Fey1-6" edge="1">
          <mxGeometry relative="1" as="geometry">
            <mxPoint x="650" y="140" as="sourcePoint" />
            <mxPoint x="650" y="249" as="targetPoint" />
          </mxGeometry>
        </mxCell>
        <mxCell id="aW_DweHNi2bZDPe8Fey1-1" value="GITHUB&amp;nbsp;&lt;div&gt;(MAIN)&lt;/div&gt;" style="rounded=0;whiteSpace=wrap;html=1;" vertex="1" parent="1">
          <mxGeometry x="320" y="80" width="140" height="60" as="geometry" />
        </mxCell>
        <mxCell id="aW_DweHNi2bZDPe8Fey1-7" style="edgeStyle=orthogonalEdgeStyle;rounded=0;orthogonalLoop=1;jettySize=auto;html=1;entryX=1;entryY=0.5;entryDx=0;entryDy=0;" edge="1" parent="1" source="aW_DweHNi2bZDPe8Fey1-6" target="aW_DweHNi2bZDPe8Fey1-8">
          <mxGeometry relative="1" as="geometry">
            <mxPoint x="649" y="310" as="targetPoint" />
          </mxGeometry>
        </mxCell>
        <mxCell id="aW_DweHNi2bZDPe8Fey1-6" value="MAVEN&lt;div&gt;/&lt;/div&gt;&lt;div&gt;SELENIUM&lt;/div&gt;" style="rounded=0;whiteSpace=wrap;html=1;" vertex="1" parent="1">
          <mxGeometry x="589" y="219" width="120" height="51" as="geometry" />
        </mxCell>
        <mxCell id="aW_DweHNi2bZDPe8Fey1-12" style="edgeStyle=orthogonalEdgeStyle;rounded=0;orthogonalLoop=1;jettySize=auto;html=1;exitX=0.5;exitY=1;exitDx=0;exitDy=0;entryX=1;entryY=0.5;entryDx=0;entryDy=0;" edge="1" parent="1" source="aW_DweHNi2bZDPe8Fey1-8" target="1fdf3b25b50cf41e-26">
          <mxGeometry relative="1" as="geometry" />
        </mxCell>
        <mxCell id="aW_DweHNi2bZDPe8Fey1-8" value="TOMCAT" style="rounded=0;whiteSpace=wrap;html=1;" vertex="1" parent="1">
          <mxGeometry x="360" y="320" width="120" height="60" as="geometry" />
        </mxCell>
        <mxCell id="aW_DweHNi2bZDPe8Fey1-9" value="PUSH" style="text;html=1;align=center;verticalAlign=middle;resizable=0;points=[];autosize=1;strokeColor=none;fillColor=none;" vertex="1" parent="1">
          <mxGeometry x="190" y="80" width="60" height="30" as="geometry" />
        </mxCell>
        <mxCell id="aW_DweHNi2bZDPe8Fey1-10" value="BUILD" style="text;html=1;align=center;verticalAlign=middle;resizable=0;points=[];autosize=1;strokeColor=none;fillColor=none;" vertex="1" parent="1">
          <mxGeometry x="500" y="78" width="60" height="30" as="geometry" />
        </mxCell>
        <mxCell id="aW_DweHNi2bZDPe8Fey1-11" value="TEST" style="text;html=1;align=center;verticalAlign=middle;resizable=0;points=[];autosize=1;strokeColor=none;fillColor=none;" vertex="1" parent="1">
          <mxGeometry x="645" y="168" width="50" height="30" as="geometry" />
        </mxCell>
        <mxCell id="aW_DweHNi2bZDPe8Fey1-15" value="&lt;font style=&quot;font-size: 45px;&quot;&gt;CI/CD&lt;/font&gt;" style="rounded=0;whiteSpace=wrap;html=1;" vertex="1" parent="1">
          <mxGeometry x="180" y="190" width="180" height="60" as="geometry" />
        </mxCell>
        <mxCell id="aW_DweHNi2bZDPe8Fey1-16" value="INTEGRATION" style="text;html=1;align=center;verticalAlign=middle;resizable=0;points=[];autosize=1;strokeColor=none;fillColor=none;" vertex="1" parent="1">
          <mxGeometry x="540" y="168" width="100" height="30" as="geometry" />
        </mxCell>
        <mxCell id="aW_DweHNi2bZDPe8Fey1-17" value="DEPLOY" style="text;html=1;align=center;verticalAlign=middle;resizable=0;points=[];autosize=1;strokeColor=none;fillColor=none;" vertex="1" parent="1">
          <mxGeometry x="525" y="288" width="70" height="30" as="geometry" />
        </mxCell>
        <mxCell id="aW_DweHNi2bZDPe8Fey1-19" value="PRODUCTION" style="text;html=1;align=center;verticalAlign=middle;resizable=0;points=[];autosize=1;strokeColor=none;fillColor=none;" vertex="1" parent="1">
          <mxGeometry x="260" y="370" width="100" height="30" as="geometry" />
        </mxCell>
      </root>
    </mxGraphModel>
  </diagram>
</mxfile>
